<svg width="390" height="268" viewBox="0 0 390 268" fill="none" xmlns="http://www.w3.org/2000/svg">
<path d="M83.7214 50.7212L74.9701 51.9125C75.3157 53.0281 75.9376 56.1729 76.1103 57.4412C76.5074 60.3583 77.5144 68.2304 78.4985 75.4598C79.5431 83.133 81.0601 91.9045 81.509 95.2021C81.8112 97.4217 81.0558 98.0412 79.9144 98.1966C78.2656 98.421 75.052 97.1146 74.7757 95.0853C74.4045 92.3584 77.9969 88.3815 83.4108 85.4485C88.0895 82.8092 93.5147 80.9081 98.905 80.1743C104.422 79.4233 108.564 81.3785 109.159 85.7541C109.781 90.32 106.013 93.4812 100.997 95.0682C98.9014 95.8057 96.1111 96.1855 93.3208 96.5653L97.2968 104.421C99.8623 103.813 102.69 103.235 105.521 102.203C115.267 98.3575 118.431 92.1783 117.403 84.6319C116.212 75.8806 107.785 71.8606 98.0188 73.19C93.1992 73.8461 86.9324 75.7327 81.5647 78.5302C73.173 82.8375 66.1267 90.385 66.964 96.5362C67.8791 103.258 77.3555 107.394 83.5068 106.556C87.6922 105.987 90.189 103.451 89.1271 95.6506C88.6264 91.9726 86.7525 81.0535 85.8115 74.1413C85.0087 68.2437 84.2666 61.369 83.9017 56.316C83.7493 54.722 83.6317 51.9606 83.7214 50.7212ZM102.736 55.1731L100.085 61.7992C104.276 63.1664 113.167 66.8003 116.557 68.9225L119.544 61.9276C115.792 59.984 107.875 56.8634 102.736 55.1731ZM64.2736 63.9614L65.5084 71.6088C67.699 71.5689 70.1808 71.2957 74.3662 70.7259C79.9468 69.9662 90.0012 67.4349 96.9427 64.8106L95.682 56.973C89.4092 59.7646 79.6805 62.3162 73.0853 63.214C70.8023 63.5248 68.0755 63.896 64.2736 63.9614ZM132.682 50.2568L133.822 58.6276C139.074 58.3002 144.634 57.8663 151.292 56.9598C157.317 56.1397 165.129 54.6888 169.516 53.704L168.368 45.2698C163.554 46.4418 156.313 47.8151 150.098 48.6611C143.44 49.5675 137.444 50.1253 132.682 50.2568ZM141.724 76.3476L133.258 76.7896C133.07 79.205 132.732 82.416 133.233 86.094C134.416 94.7819 142.373 98.6721 156.895 96.6952C165.837 95.478 173.334 93.6177 178.67 91.5349L177.398 82.6654C171.962 84.9557 164.037 87.0033 155.476 88.1687C146.281 89.4204 142.079 87.0213 141.527 82.9627C141.233 80.8066 141.401 78.7169 141.724 76.3476ZM169.136 38.577L164.348 41.3603C166.388 43.537 168.872 47.0743 170.557 49.493L175.337 46.6463C173.813 44.464 171.041 40.7075 169.136 38.577ZM176.23 34.7047L171.505 37.4793C173.546 39.656 176.139 43.0492 177.77 45.54L182.541 42.6299C181.097 40.5657 178.207 36.89 176.23 34.7047ZM195.266 60.6623L199.686 68.4574C204.828 65.432 216.732 58.4506 224.088 57.4493C229.668 56.6896 233.677 59.5671 234.316 64.2599C235.49 72.8843 225.299 78.2116 210.892 80.5603L215.315 87.9028C235.254 83.9614 244.33 74.7167 242.776 63.302C241.464 53.6629 233.93 48.6169 223.847 49.9895C216.174 51.0341 205.958 56.1711 201.755 58.035C199.938 58.9282 197.125 60.0862 195.266 60.6623ZM248.741 36.3309L250.748 44.9065C257.88 42.2563 270.635 39.1636 276.51 37.7179C272.638 41.5391 268.477 49.4043 269.72 58.5361C271.593 72.2971 285.125 77.7538 298.554 76.7653L300.289 67.6803C289.494 68.5685 279.219 66.1565 277.794 55.693C276.775 48.21 281.424 39.1804 288.758 36.1152C292.078 34.8881 297.523 34.0823 300.948 33.6161L299.771 25.4442C295.294 26.2473 288.434 27.5688 281.98 29.0287C270.449 31.6318 260.17 33.9353 254.912 35.1678C253.725 35.4587 251.205 35.9308 248.741 36.3309Z" fill="white"/>
<path d="M93.8419 129.156L85.5246 123.571C84.7171 125.231 82.9727 127.6 81.3754 129.626C77.6963 134.39 69.9033 142.62 65.5094 147.352C59.8844 153.479 59.8432 156.972 66.8551 161.508C73.354 165.597 83.7638 172.318 88.1125 175.795C90.274 177.438 92.444 179.145 94.4959 180.933L100.92 173.083C93.5967 167.685 80.2616 159.877 74.9616 156.529C71.1314 154.014 70.9644 153.262 73.937 149.951C77.6851 145.694 85.1753 138.087 88.8484 134.228C90.143 132.824 92.0112 130.891 93.8419 129.156ZM138.233 118.85L128.427 119.41C128.816 120.842 129.107 123.451 129.109 125.841C129.183 129.706 128.666 136.817 127.828 143.002C126.69 152.2 123.684 166.173 120.742 173.032L130.026 174.804C132.495 166.847 134.974 153.268 136.049 144.079C136.889 137.441 137.349 129.434 137.65 125.001C137.777 123.563 138.023 120.623 138.233 118.85ZM123.349 130.5C120.749 130.854 118.648 131.076 115.298 131.144L116.622 138.973C118.859 138.798 121.223 138.605 124.33 138.182C131.496 137.207 141.314 134.837 148.927 131.927L147.848 124C139.872 127.088 131.086 129.447 123.349 130.5ZM144.591 137.555L145.601 144.975C149.527 143.924 153.369 143.207 157.808 142.603C161.613 142.085 165.533 141.939 168.819 141.879L167.91 134.252C164.18 134.372 160.35 134.7 156.735 135.192C152.549 135.762 148.09 136.692 144.591 137.555ZM150.182 153.006L142.532 153.273C142.306 155.887 142.214 159 142.611 161.917C143.483 168.322 149.699 171.287 160.416 169.828C165.49 169.137 169.669 168.051 173.16 167.124L172.372 158.964C167.982 160.401 163.612 161.513 159.427 162.082C152.578 163.015 150.454 161.172 150.074 158.382C149.884 156.987 149.98 154.843 150.182 153.006ZM158.777 117.927L154.043 120.638C156.092 122.878 158.567 126.352 160.253 128.771L165.033 125.924C163.508 123.741 160.736 119.985 158.777 117.927ZM165.926 113.982L161.201 116.757C163.241 118.934 165.835 122.327 167.466 124.818L172.245 121.971C170.793 119.843 167.903 116.167 165.926 113.982ZM206.308 114.556C207.354 116.545 208.639 119.342 210.509 122.64C213.192 127.635 216.707 132.583 219.499 136.013C217.507 136.091 213.279 136.343 210.128 136.449L210.409 143.258C215.797 142.976 223.963 142.704 227.609 142.918L230.709 136.748C229.386 135.572 228.063 134.395 226.769 132.957C224.28 130.324 220.557 125.276 217.866 120.217C215.791 116.366 213.587 111.563 211.971 106.81L203.548 108.99C204.594 110.979 205.666 113.158 206.308 114.556ZM183.631 120.679L184.854 128.716C198.001 128.024 207.986 126.406 216.282 124.244C221.278 122.982 226.602 121.289 230.623 119.514L228.593 111.717C223.79 113.92 218.357 115.758 212.808 117.224C205.31 119.084 195.68 120.46 183.631 120.679ZM199.313 140.505L191.135 139.745C189.566 144.351 188.854 148.13 189.38 151.998C190.632 161.193 199.431 165.098 212.431 163.328C220.104 162.284 225.699 160.682 229.228 159.556L228.575 151.442C224.257 152.934 218.772 154.391 211.859 155.332C203.163 156.452 198.105 154.879 197.371 149.489C197 146.762 197.634 143.834 199.313 140.505ZM254.017 107.739L244.234 108.941C244.945 110.847 245.38 113.565 245.613 115.277C246.14 119.146 247.222 126.62 248.65 132.368C252.739 149.121 259.61 154.516 266.649 153.558C271.722 152.867 275.136 148.527 277.874 136.851L270.424 130.05C269.901 135.223 268.447 143.043 265.403 143.458C261.408 144.001 258.651 137.982 256.52 128.971C255.509 124.394 254.87 119.701 254.309 115.579C254.067 113.804 253.875 110.019 254.017 107.739ZM285.914 104.818L278.223 108.577C286.206 115.5 291.719 130.38 294.069 140.524L301.991 136.087C299.973 126.479 292.932 111.29 285.914 104.818ZM333.363 126.455L339.894 125.566L338.591 103.654L337.622 94.1617L327.158 95.5861L328.761 104.992L333.363 126.455ZM338.965 142.938C342.136 142.507 344.226 139.832 343.777 136.535C343.328 133.237 340.608 131.282 337.437 131.714C334.203 132.154 332.104 134.765 332.553 138.063C333.002 141.36 335.668 143.387 338.965 142.938Z" fill="white"/>
<path d="M227.437 184.364C227.437 185.157 227.287 185.831 226.986 186.388C226.688 186.944 226.281 187.369 225.765 187.663C225.251 187.954 224.673 188.099 224.032 188.099C223.386 188.099 222.806 187.953 222.292 187.659C221.778 187.366 221.372 186.941 221.074 186.384C220.775 185.828 220.626 185.154 220.626 184.364C220.626 183.571 220.775 182.896 221.074 182.339C221.372 181.783 221.778 181.359 222.292 181.068C222.806 180.775 223.386 180.628 224.032 180.628C224.673 180.628 225.251 180.775 225.765 181.068C226.281 181.359 226.688 181.783 226.986 182.339C227.287 182.896 227.437 183.571 227.437 184.364ZM225.878 184.364C225.878 183.85 225.802 183.417 225.648 183.064C225.496 182.711 225.282 182.444 225.005 182.261C224.728 182.079 224.404 181.988 224.032 181.988C223.66 181.988 223.336 182.079 223.059 182.261C222.782 182.444 222.566 182.711 222.413 183.064C222.261 183.417 222.185 183.85 222.185 184.364C222.185 184.877 222.261 185.311 222.413 185.663C222.566 186.016 222.782 186.284 223.059 186.466C223.336 186.648 223.66 186.739 224.032 186.739C224.404 186.739 224.728 186.648 225.005 186.466C225.282 186.284 225.496 186.016 225.648 185.663C225.802 185.311 225.878 184.877 225.878 184.364ZM233.399 183.078C233.349 182.905 233.279 182.753 233.189 182.62C233.099 182.485 232.989 182.371 232.859 182.279C232.731 182.184 232.584 182.112 232.419 182.062C232.255 182.013 232.074 181.988 231.875 181.988C231.504 181.988 231.177 182.08 230.895 182.265C230.616 182.45 230.398 182.718 230.242 183.071C230.086 183.421 230.008 183.85 230.008 184.357C230.008 184.863 230.084 185.294 230.238 185.649C230.392 186.004 230.61 186.275 230.892 186.462C231.174 186.647 231.506 186.739 231.89 186.739C232.238 186.739 232.535 186.678 232.781 186.555C233.03 186.429 233.219 186.253 233.349 186.026C233.482 185.798 233.548 185.53 233.548 185.219L233.861 185.266H231.986V184.108H235.029V185.024C235.029 185.663 234.894 186.213 234.624 186.672C234.354 187.129 233.982 187.482 233.509 187.73C233.035 187.976 232.493 188.099 231.883 188.099C231.201 188.099 230.602 187.949 230.086 187.648C229.57 187.345 229.167 186.916 228.878 186.359C228.592 185.801 228.449 185.138 228.449 184.371C228.449 183.781 228.534 183.256 228.704 182.794C228.877 182.33 229.119 181.937 229.429 181.615C229.739 181.293 230.1 181.048 230.512 180.88C230.924 180.712 231.37 180.628 231.851 180.628C232.263 180.628 232.646 180.688 233.001 180.809C233.356 180.927 233.671 181.095 233.946 181.313C234.223 181.531 234.449 181.79 234.624 182.091C234.799 182.389 234.912 182.718 234.961 183.078H233.399ZM242.867 184.364C242.867 185.157 242.717 185.831 242.416 186.388C242.118 186.944 241.711 187.369 241.195 187.663C240.681 187.954 240.103 188.099 239.462 188.099C238.815 188.099 238.235 187.953 237.722 187.659C237.208 187.366 236.802 186.941 236.503 186.384C236.205 185.828 236.056 185.154 236.056 184.364C236.056 183.571 236.205 182.896 236.503 182.339C236.802 181.783 237.208 181.359 237.722 181.068C238.235 180.775 238.815 180.628 239.462 180.628C240.103 180.628 240.681 180.775 241.195 181.068C241.711 181.359 242.118 181.783 242.416 182.339C242.717 182.896 242.867 183.571 242.867 184.364ZM241.308 184.364C241.308 183.85 241.231 183.417 241.077 183.064C240.926 182.711 240.712 182.444 240.435 182.261C240.158 182.079 239.833 181.988 239.462 181.988C239.09 181.988 238.766 182.079 238.489 182.261C238.212 182.444 237.996 182.711 237.842 183.064C237.691 183.417 237.615 183.85 237.615 184.364C237.615 184.877 237.691 185.311 237.842 185.663C237.996 186.016 238.212 186.284 238.489 186.466C238.766 186.648 239.09 186.739 239.462 186.739C239.833 186.739 240.158 186.648 240.435 186.466C240.712 186.284 240.926 186.016 241.077 185.663C241.231 185.311 241.308 184.877 241.308 184.364ZM243.397 181.995V180.727H249.37V181.995H247.144V188H245.624V181.995H243.397ZM250.077 181.995V180.727H256.05V181.995H253.823V188H252.303V181.995H250.077ZM257.033 188V180.727H261.934V181.995H258.571V183.728H261.682V184.996H258.571V186.732H261.948V188H257.033ZM265.471 188V180.727H267.009V183.934H267.104L269.722 180.727H271.565L268.866 183.984L271.597 188H269.757L267.765 185.01L267.009 185.933V188H265.471ZM276.858 180.727H278.395V185.45C278.395 185.981 278.269 186.445 278.015 186.842C277.764 187.24 277.413 187.55 276.961 187.773C276.508 187.993 275.982 188.103 275.38 188.103C274.777 188.103 274.249 187.993 273.797 187.773C273.344 187.55 272.993 187.24 272.742 186.842C272.491 186.445 272.366 185.981 272.366 185.45V180.727H273.903V185.319C273.903 185.596 273.964 185.842 274.084 186.058C274.207 186.273 274.38 186.442 274.603 186.565C274.825 186.688 275.084 186.75 275.38 186.75C275.679 186.75 275.938 186.688 276.158 186.565C276.381 186.442 276.552 186.273 276.673 186.058C276.796 185.842 276.858 185.596 276.858 185.319V180.727ZM282.239 188H279.66V180.727H282.26C282.991 180.727 283.621 180.873 284.149 181.164C284.677 181.453 285.083 181.868 285.367 182.411C285.654 182.953 285.797 183.601 285.797 184.357C285.797 185.114 285.654 185.765 285.367 186.31C285.083 186.854 284.675 187.272 284.142 187.563C283.612 187.854 282.977 188 282.239 188ZM281.198 186.683H282.175C282.629 186.683 283.012 186.602 283.322 186.441C283.634 186.278 283.869 186.026 284.025 185.685C284.183 185.341 284.263 184.899 284.263 184.357C284.263 183.819 284.183 183.38 284.025 183.039C283.869 182.698 283.635 182.447 283.325 182.286C283.015 182.125 282.633 182.045 282.178 182.045H281.198V186.683ZM287.779 188H286.131L288.642 180.727H290.624L293.131 188H291.483L289.661 182.389H289.604L287.779 188ZM287.676 185.141H291.568V186.342H287.676V185.141ZM297.785 182.819C297.757 182.532 297.635 182.31 297.42 182.151C297.204 181.993 296.912 181.913 296.543 181.913C296.292 181.913 296.08 181.949 295.907 182.02C295.734 182.089 295.601 182.184 295.509 182.308C295.419 182.431 295.374 182.57 295.374 182.727C295.369 182.857 295.397 182.97 295.456 183.067C295.517 183.165 295.601 183.249 295.708 183.32C295.815 183.388 295.938 183.449 296.077 183.501C296.217 183.55 296.366 183.593 296.525 183.629L297.178 183.785C297.495 183.856 297.787 183.951 298.052 184.069C298.317 184.187 298.547 184.333 298.741 184.506C298.935 184.679 299.085 184.882 299.192 185.116C299.301 185.351 299.356 185.62 299.359 185.923C299.356 186.368 299.243 186.754 299.018 187.08C298.795 187.405 298.473 187.657 298.052 187.837C297.633 188.014 297.127 188.103 296.535 188.103C295.948 188.103 295.437 188.013 295.001 187.833C294.568 187.653 294.23 187.387 293.986 187.034C293.744 186.679 293.618 186.24 293.606 185.717H295.094C295.11 185.96 295.18 186.164 295.303 186.327C295.429 186.488 295.596 186.61 295.804 186.693C296.015 186.774 296.253 186.814 296.518 186.814C296.778 186.814 297.004 186.776 297.196 186.7C297.39 186.625 297.54 186.519 297.647 186.384C297.753 186.249 297.807 186.094 297.807 185.919C297.807 185.756 297.758 185.618 297.661 185.507C297.566 185.396 297.427 185.301 297.242 185.223C297.06 185.145 296.836 185.074 296.571 185.01L295.779 184.811C295.166 184.662 294.682 184.429 294.327 184.112C293.972 183.794 293.795 183.367 293.797 182.83C293.795 182.389 293.912 182.004 294.149 181.675C294.388 181.346 294.716 181.089 295.133 180.905C295.549 180.72 296.023 180.628 296.553 180.628C297.093 180.628 297.564 180.72 297.967 180.905C298.371 181.089 298.686 181.346 298.911 181.675C299.136 182.004 299.252 182.386 299.259 182.819H297.785ZM301.48 188H299.833L302.343 180.727H304.325L306.832 188H305.184L303.362 182.389H303.306L301.48 188ZM301.377 185.141H305.269V186.342H301.377V185.141ZM309.245 180.727V188H307.707V180.727H309.245Z" fill="white"/>
</svg>
